<svg xmlns="http://www.w3.org/2000/svg" xmlns:xlink="http://www.w3.org/1999/xlink" preserveAspectRatio="xMidYMid meet" version="1.0" viewBox="141.0 138.0 217.7 220.7" zoomAndPan="magnify" style="fill: rgb(0, 0, 0);" original_string_length="12625"><g id="__id113_s5c2qsim03a"><path d="M348.65,223.96c1.3-0.72,2.4-1.77,3.31-3.04c-0.99-2.41-2.27-3.33-3.58-3.33c-1.5,0-3.17,1.15-4.56,2.62 c-1.46,1.54-2.54,3.35-2.82,4.58l-0.01,0c-0.07,0.03-0.81-0.11-0.59-0.06l0.05,0.01C343.84,225.51,346.54,225.14,348.65,223.96 M229.2,161.41c-0.77-2.37-2.77-4.94-6.62-7.24c-0.08,0.36-0.13,0.74-0.14,1.13c-0.23,7.07,1.03,10.79,2.67,12.28 c1.05,0.95,2.33,0.68,3.21-0.28C229.44,166.07,230,163.89,229.2,161.41z M175.36,257.78c-0.03,1.35,0,2.6,0.1,3.78 c4.48-0.28,6.11-1.2,6.19-2.21c0.04-0.53-0.55-1.21-1.39-1.82c-1.01-0.73-2.28-1.24-3.36-1.26h-0.01 C176.06,256.26,175.39,256.67,175.36,257.78z M256.88,322.84c-1.71-1.2-3.7-2.49-5.99-3.88c-2.04-1.24-3.39-0.83-4.04,0.24 c-0.44,0.71-0.66,1.67-0.67,2.68c-0.01,1.05,0.21,2.13,0.68,3.05c0.99,1.96,3.3,3.11,7.1,1.19c0.93-0.47,1.92-1.59,2.86-3.17 L256.88,322.84z M205.29,213.97c2.41,2.42,4.7,4.25,6.86,5.59l-0.07-0.39c-0.38-2.35-0.05-5.07,1.23-8.14 c-0.6,0.11-1.18,0.24-1.76,0.38C209.05,212.05,206.84,212.96,205.29,213.97z M195.14,201.24c0.42,0.63,0.84,1.24,1.25,1.84 c4.03-1.63,8.95-2.54,14.15-2.81c-0.19-2.9-0.01-6.04,0.69-9.06c0.48-2.07,1.21-4.1,2.23-5.97l-0.48-0.18 c-3.16-1.07-7-1.06-10.51-0.13c-3.45,0.92-6.54,2.71-8.26,5.2C192.29,192.92,192.1,196.69,195.14,201.24z M238.94,208.33 c-0.22,1.09-0.53,2.21-0.92,3.34c1.37-0.34,2.72-0.82,4.02-1.43C241.14,209.56,240.1,208.93,238.94,208.33z M223.32,238.84 c-3.6-3.65-6.32-8.45-7.99-13.48c-0.44-0.42-0.84-0.88-1.2-1.36c-3.39-1.45-7.06-3.99-10.99-7.91c-0.14,0.29-0.21,0.58-0.22,0.86 c-0.04,12.15,5.74,19.87,13.63,23.45c1.81-0.24,3.6-0.62,5.3-1.11C222.35,239.15,222.84,239,223.32,238.84z M228.28,242.76 c-0.82-0.48-1.61-1.02-2.37-1.61c-1.04,0.4-2.11,0.76-3.22,1.08l-0.14,0.04C224.41,242.62,226.34,242.78,228.28,242.76z M284.63,228.62c3.98-0.39,6.91-2.15,8.97-4.7c-2.99,0.71-5.38,1.39-7.35,2.01l-0.18,0.34 C285.62,227.07,285.14,227.85,284.63,228.62z M279.51,228.41c0.47,0.08,0.93,0.14,1.37,0.18c0.27-0.34,0.53-0.69,0.78-1.04 c-0.71,0.28-1.35,0.54-1.95,0.78L279.51,228.41z M278.45,231.32c-1.22-0.23-2.51-0.54-3.85-0.96l-0.56-0.19 c-2.62,0.48-6,0.49-12.26-0.1c-0.84-0.08-1.45-0.82-1.38-1.65c0.08-0.84,0.82-1.45,1.65-1.38c3.09,0.29,5.42,0.42,7.28,0.42 c-2.62-2-5.22-4.75-7.3-7.8c-2.48,9.49-8.29,16.49-15.4,20.85c-1.3,0.8-2.64,1.51-4.02,2.12 C260.6,242.76,271.8,237.91,278.45,231.32z M297.13,195.71c1.69,2.62,2.86,6.13,3.37,9.93c0.46,3.43,0.4,7.11-0.29,10.58 c-0.19,0.96-0.43,1.91-0.72,2.83c6.06-2.13,9.42-4.66,10.64-7.34c1.36-2.98-0.11-6.34-3.49-9.59 C304.28,199.86,301.02,197.67,297.13,195.71z M289.18,203.03c1.5-2.51,2.44-5.41,2.81-8.4c-0.49-0.27-1-0.45-1.53-0.52 c-6.33-0.84-10.9-0.62-14.16,0.24c1.96-0.05,4.09,0.01,6.42,0.18C285.36,194.73,287.9,198.09,289.18,203.03z M294.62,197.32 c-0.57,2.64-1.55,5.18-2.93,7.44c-0.53,0.87-1.13,1.7-1.78,2.49c0.24,2.47,0.21,5.17-0.19,7.97c-0.33,2.31-0.92,4.68-1.81,7.03 c1.5-0.43,3.2-0.87,5.14-1.33c0.96-0.23,1.88-0.46,2.76-0.71c0.62-1.43,1.09-2.97,1.4-4.56c0.63-3.15,0.68-6.49,0.26-9.59 C297.02,202.63,296.02,199.52,294.62,197.32z M253.17,182.44c2.3-6.94,9.14-12.22,23.52-11.74c9.21,0.31,14.95,6.05,17.31,13.27 c0.77,2.38,1.18,4.92,1.21,7.47c5.61,2.46,10.32,5.38,13.55,8.49c4.35,4.17,6.12,8.73,4.15,13.05c-1.72,3.77-6.41,7.2-14.94,9.78 c-0.56,1.07-1.21,2.09-1.96,3.02c-3.02,3.77-7.51,6.2-13.77,5.97c-7.51,8.65-21.3,15.09-45.01,13.77c-0.91-0.05-1.8-0.17-2.67-0.34 c-1.04,0.2-2.08,0.35-3.12,0.45c-5.27,0.53-10.53-0.15-15.21-2.07l-0.12-0.05c-1.29,0.14-2.59,0.22-3.89,0.22 c-3.62,0.02-7.24-0.52-10.58-1.79c-8.57-3.24-15.24-11.12-15.31-26.33c-0.02-5.04,2.81-8.72,7.28-11.22l-1-1.47 c-3.87-5.79-3.51-10.76-0.9-14.52c2.16-3.12,5.88-5.32,9.99-6.42c4.05-1.08,8.53-1.08,12.27,0.19c0.41,0.14,0.81,0.29,1.2,0.46 c3.03-3.89,7.74-6.69,14.75-7.11c5.25-0.31,10.32,0.05,14.56,1.36c3.25,1,6.02,2.56,8.06,4.8 C252.76,181.93,252.97,182.18,253.17,182.44z M256.58,196.03c0.64,1.91,1.48,3.74,2.45,5.39c0.13-0.22,0.27-0.44,0.42-0.66 c-0.51-1.87-1.36-3.31-2.48-4.38L256.58,196.03z M263.27,206.74c1.23,1.07,2.48,1.77,3.65,1.96c-0.33-0.86-0.6-1.8-0.78-2.77 c-0.3-1.65-0.39-3.44-0.09-5.2c0.09-0.54,0.22-1.07,0.39-1.6c-1.35,0.56-2.44,1.25-3.3,2.03c-0.14,0.13-0.28,0.26-0.41,0.4 l0.08,0.52C263.05,203.67,263.19,205.23,263.27,206.74z M269.72,207.94c1.62-1.39,2.88-4.61,3.33-10.34 c-0.95,0.1-1.83,0.22-2.65,0.38c-0.72,1-1.13,2.12-1.33,3.26c-0.24,1.39-0.17,2.83,0.07,4.15 C269.31,206.33,269.51,207.19,269.72,207.94z M268.46,211.76c-0.29,0.04-0.58,0.06-0.88,0.06c-1.39,0-2.84-0.48-4.26-1.33 c-0.05,1.64-0.18,3.23-0.4,4.76c2.76,5.22,7.4,9.92,11.36,11.73c1.45-0.34,2.7-0.85,4.28-1.49c1.46-0.59,3.18-1.29,5.53-2.08 c1.37-2.86,2.2-5.8,2.61-8.63c0.23-1.62,0.33-3.2,0.31-4.72c-4.1,3.21-9.72,4.79-16.81,3.49 C269.83,213.49,269.16,212.82,268.46,211.76z M276.11,197.41c-0.57,7.24-2.44,11.38-4.94,13.23c6.86,1.15,12.05-0.84,15.54-4.4 l-0.1-0.62c-0.8-4.65-2.51-7.91-4.13-8.03C280.14,197.41,278.02,197.35,276.11,197.41z M275.42,188.72c0.39,0.76,0.66,1.6,0.78,2.54 c2.04-0.47,4.45-0.73,7.29-0.72C280.89,189.83,278.18,189.21,275.42,188.72z M259.56,187.41c-1.24,0.17-2.5,0.4-3.78,0.67 c0.17,0.8,0.29,1.65,0.34,2.54c0.03,0.49,0.04,0.99,0.03,1.51c1.07,0.54,2.05,1.22,2.92,2.06c1.14,1.1,2.07,2.45,2.75,4.1 c1.7-1.31,3.95-2.35,6.87-3.04c1.1-1.2,2.58-2.24,4.52-3.04c-0.04-0.86-0.24-1.58-0.56-2.17c-0.51-0.92-1.37-1.6-2.49-2.08 C266.66,187.55,263.1,187.35,259.56,187.41z M259.16,184.39c2.71-0.37,5.3-0.5,7.6-0.3c1.54,0.14,2.95,0.43,4.19,0.89 c7.1,0.85,13.95,2.53,20,4.75l1.16,0.44c-0.12-1.8-0.46-3.58-1.01-5.25c-1.98-6.08-6.79-10.92-14.5-11.17 c-13.32-0.44-19.22,4.51-20.83,10.8C256.89,184.46,258.02,184.42,259.16,184.39z M252.24,188.92c-1.61,0.43-3.19,0.91-4.72,1.42 c1.68,0,3.3,0.14,4.83,0.46C252.29,190.18,252.25,189.55,252.24,188.92z M228.61,204.81c-0.71,1.5-1.2,3-1.49,4.45 c1.79,0.76,3.47,1.78,4.96,3.11c0.79,0.01,1.6-0.02,2.42-0.09l0.01,0c0.77-1.76,1.3-3.56,1.56-5.23c-1.4-0.55-2.91-1.05-4.5-1.5 C230.62,205.28,229.62,205.03,228.61,204.81z M231.71,199.94c-0.57,0.7-1.08,1.4-1.54,2.1c0.75,0.18,1.49,0.37,2.22,0.57 c1.34,0.37,2.63,0.79,3.86,1.24c-0.11-1.62-0.6-2.78-1.5-3.08C233.69,200.42,232.68,200.14,231.71,199.94z M226.99,201.37 c0.37-0.62,0.77-1.23,1.21-1.85c-0.98-0.02-1.9,0.05-2.74,0.21c-0.41,0.4-0.82,0.8-1.2,1.19 C225.18,201.05,226.09,201.2,226.99,201.37z M224.2,208.28c0.3-1.34,0.73-2.7,1.33-4.07c-1.2-0.21-2.43-0.38-3.66-0.52 c-0.19,1.43-0.42,2.66-0.68,3.72l0.17,0.34C222.31,207.86,223.26,208.04,224.2,208.28z M227.38,217.15 c0.29,1.05,0.68,2.03,1.15,2.94c1.19-0.87,2.25-1.94,3.18-3.11l0.19-0.25c-0.36-0.49-0.75-0.95-1.16-1.38 c-1.34-0.09-2.63-0.29-3.84-0.59C227,215.59,227.16,216.39,227.38,217.15z M225.88,221.61c-0.59-1.12-1.08-2.34-1.44-3.63 c-0.38-1.36-0.62-2.81-0.7-4.31c-1.52-0.71-2.83-1.63-3.84-2.74l-0.18,0.3c-1.05,1.63-2.17,2.29-3.26,2.17 c-0.06,2.75,0.31,5.69,1.06,8.6c1.38,0.39,2.69,0.55,3.93,0.54C223.04,222.52,224.52,222.18,225.88,221.61z M232.04,224.49 c0.93,0.74,1.93,1.27,2.93,1.56l0.2-0.06c-0.26-2.49-0.83-4.63-1.64-6.43c-0.99,1.16-2.11,2.21-3.34,3.1 C230.76,223.35,231.39,223.97,232.04,224.49z M230.18,226.89l-0.02-0.02c-0.94-0.74-1.82-1.64-2.62-2.67 c-1.82,0.85-3.85,1.34-6.06,1.37h-0.23c0.55,0.23,1.13,0.43,1.73,0.6C225.22,226.81,227.7,227.06,230.18,226.89z M235.33,229.25 l-0.35-0.06c-4.28,1.08-8.89,1.05-12.83-0.07c-0.83-0.24-1.63-0.52-2.4-0.86c1.67,3.6,3.94,6.88,6.7,9.39 C231.64,235.38,235.26,232.2,235.33,229.25z M243.98,217.62c0.37-1.62,0.62-3.12,0.77-4.5c-0.12-0.21-0.26-0.41-0.4-0.62 c-2.48,1.31-5.15,2.15-7.81,2.58c-0.3,0.57-0.62,1.13-0.96,1.68c1.23,2.21,2.12,4.88,2.53,8.08c1.41-0.69,2.7-1.56,3.82-2.6 c0.28-0.26,0.55-0.52,0.79-0.78C243.21,220.38,243.64,219.11,243.98,217.62z M247.95,210.14c0.01,0.72-0.02,1.47-0.07,2.25 c1.58,3.23,1.02,6.89-2.62,10.84c-1.63,3.29-3.87,5.13-6.3,5.82c-0.19,0.05-0.38,0.1-0.57,0.14c-0.01,3.81-3.76,7.72-9.25,10.53 c1.68,1.09,3.5,1.9,5.45,2.36c3.63-0.76,7.2-2.15,10.46-4.16c7.23-4.43,12.97-11.88,14.7-22.18c-0.16-0.33-0.31-0.66-0.46-0.99 c-1.22-2.79-1.9-5.67-1.73-8.36c0.03-0.47,0.08-0.92,0.16-1.38c-0.27-0.39-0.54-0.78-0.8-1.19c-0.78-1.23-1.49-2.55-2.11-3.95 l-0.05,0.15C253.42,204.37,250.97,207.71,247.95,210.14z M241.23,200.8c-1.11-0.93-2.46-1.59-3.97-2.02c1.45,1.3,2.12,3.6,2.05,6.34 c2.16,1.01,4.03,2.17,5.51,3.45C244.51,204.98,243.21,202.45,241.23,200.8z M236.31,195.45c2.63,0.46,4.98,1.44,6.87,3.01 c2.19,1.83,3.74,4.42,4.41,7.89c1.87-1.91,3.36-4.29,4.27-7.21c0.54-1.73,0.89-3.33,1.08-4.81l-0.06-0.24 c-1.69-0.51-3.59-0.71-5.6-0.69c-3.29,0.03-6.86,0.67-10.26,1.59C236.77,195.14,236.53,195.3,236.31,195.45z M222.42,196.73 c0.84-0.25,1.68-0.47,2.51-0.66c7.23-6.37,16.51-9.79,26.33-11.09c-0.29-0.44-0.61-0.85-0.97-1.24c-1.65-1.81-3.96-3.09-6.7-3.94 c-3.87-1.2-8.57-1.52-13.49-1.23c-5.71,0.34-9.62,2.53-12.2,5.62c2.83,2.1,4.66,5.35,4.59,9.89 C222.47,195.01,222.45,195.89,222.42,196.73z M211.22,205.04c-3.08,1.85-5.95,3.99-8.39,6.3l0.43,0.49 c1.94-1.42,4.58-2.62,7.56-3.38c0.43-0.11,0.87-0.21,1.31-0.3l-0.2-0.57C211.66,206.8,211.42,205.95,211.22,205.04z M214.48,203.23 l-0.47,0.25c0.17,0.92,0.38,1.78,0.62,2.56c0.34-0.98,0.75-1.92,1.23-2.78L214.48,203.23z M213.76,200.18 c1.83-0.92,3.7-1.73,5.57-2.42c0.05-1.15,0.09-2.38,0.11-3.71c0.05-3.32-1.25-5.72-3.28-7.31c-0.89,1.61-1.53,3.36-1.95,5.16 c-0.65,2.77-0.8,5.64-0.62,8.28L213.76,200.18z M200.89,209.07c2.13-2.01,4.53-3.88,7.1-5.56c-3.59,0.35-6.94,1.04-9.79,2.09 C199.11,206.83,200.01,207.99,200.89,209.07z M194.98,225c-0.06,0.84-0.79,1.47-1.63,1.41c-0.84-0.06-1.47-0.79-1.42-1.63 c0.34-4.64,2.93-9.32,6.81-13.55c-1.11-1.34-2.24-2.8-3.39-4.37c-3.69,2-6,4.87-5.99,8.74c0.05,13.66,5.87,20.67,13.33,23.49 c2.59,0.98,5.39,1.47,8.23,1.58c-6.61-4.66-11.09-12.52-11.05-23.73c0-1.02,0.43-2.05,1.18-3.03l-0.36-0.4 C197.42,217.15,195.26,221.11,194.98,225z M252.12,357.87c-0.52,0.66-1.48,0.78-2.14,0.26c-0.66-0.52-0.78-1.48-0.26-2.14 c2.87-3.69,5.51-6.72,7.83-9.38c2.88-3.31,5.26-6.04,6.72-8.43c2.72-4.45,2.07-8.07-4.92-13.53c-1.21,2-2.6,3.47-4.02,4.19 c-5.8,2.94-9.49,0.83-11.19-2.54c-0.69-1.36-1.02-2.94-1-4.45c0.02-1.55,0.39-3.06,1.12-4.25c1.52-2.5,4.33-3.64,8.23-1.26 c2.15,1.31,4.06,2.54,5.75,3.71c1.09-2.67,1.9-5.93,2.2-9.4c0.41-4.85-0.2-10.08-2.51-14.63c-1.67-3.3-4.25-6.26-7.99-8.48 c-11.48-6.81-26.28-6.44-39.7-6.11c-3.92,0.1-7.72,0.19-11.32,0.11c-13.54-0.32-24.03-3.09-26.2-16.95c-2.27,0.07-4.92,0.01-8-0.23 c-2.71-0.21-5.16-0.91-7.37-2.04c-6.39-3.25-10.67-9.95-13.16-18.02c-2.44-7.89-3.18-17.11-2.53-25.64 c0.59-7.7,2.31-14.87,4.94-20.04l1.18-2.32c11.97-23.61,29.55-58.3,65.06-49.2c3.26,0.84,6.03,1.83,8.37,2.92 c2.47-3.33,7.26-5.49,13.2-6.79c6.96-1.52,15.61-1.89,23.83-1.62c11.06,0.37,21.42,1.92,25.91,3.42l5.78,1.93 c33.41,11.17,34,11.36,61.59,38.1c4.12,3.99,6.78,12.36,7.03,20.6c0.13,4.3-0.38,8.59-1.68,12.24c-0.45,1.27-1,2.47-1.65,3.57 c1.08,3.43,1.75,8.34,1.75,15.18c0,33.51-21.41,37.1-47.61,41.49c-3.81,0.64-7.73,1.3-11.75,2.08l-0.21,0.03 c-1.12,0.11-5.99,0.38-11.05,0.63c-5.71,0.28-11.67,0.54-12.82,0.54c-0.84,0-1.53-0.68-1.53-1.53c0-0.84,0.68-1.53,1.53-1.53 c1.21,0,7.09-0.26,12.67-0.53c5.28-0.26,10.29-0.53,10.8-0.6l0.02,0c3.98-0.78,7.96-1.44,11.83-2.09 c24.8-4.16,45.06-7.55,45.06-38.48c0-5.35-0.35-9.33-0.94-12.23c-0.84,0.86-1.79,1.59-2.85,2.18c-2.75,1.53-6.18,2.04-10.36,1.09 l-0.09-0.02c-1.61-0.41-2.07-1.77-1.66-3.57l0-0.01c0.39-1.7,1.76-4.08,3.59-6c1.89-2,4.32-3.57,6.77-3.57 c1.91,0,3.76,0.93,5.25,3.33c0.13-0.31,0.25-0.63,0.37-0.96c1.17-3.29,1.63-7.2,1.51-11.14c-0.23-7.51-2.54-15.03-6.11-18.5 c-27.09-26.25-27.66-26.45-60.43-37.4l-5.78-1.93c-4.27-1.43-14.27-2.91-25.04-3.27c-7.99-0.26-16.37,0.1-23.09,1.56 c-5.02,1.1-9.05,2.78-11.11,5.24c4.72,2.78,7.18,6.01,8.16,9c1.18,3.62,0.24,6.94-1.53,8.88c-2.01,2.21-5.01,2.77-7.52,0.49 c-2.2-2.01-3.93-6.52-3.66-14.63c0.03-0.87,0.17-1.7,0.42-2.48c-2.14-0.98-4.7-1.89-7.73-2.67c-33.14-8.5-50.06,24.89-61.58,47.62 l-1.18,2.33c-2.45,4.82-4.06,11.58-4.62,18.88c-0.62,8.19,0.08,17.01,2.39,24.52c2.26,7.32,6.05,13.35,11.63,16.19 c1.86,0.95,3.93,1.54,6.21,1.72c2.93,0.22,5.4,0.32,7.45,0.32c-0.08-1.23-0.11-2.54-0.08-3.93c0.08-3.33,2.13-4.55,4.65-4.49l0.02,0 c1.7,0.05,3.61,0.78,5.06,1.83c1.63,1.18,2.77,2.82,2.64,4.52c-0.16,2.13-2.48,4.15-8.86,4.82c2.15,11.5,11.34,13.83,23.15,14.11 c3.53,0.08,7.3-0.01,11.18-0.11c13.83-0.35,29.1-0.73,41.32,6.53c4.29,2.54,7.24,5.94,9.16,9.74c2.59,5.11,3.28,10.91,2.83,16.26 c-0.35,4.07-1.36,7.91-2.71,10.98c9.16,6.94,9.89,11.67,6.1,17.88c-1.61,2.64-4.05,5.44-7.02,8.85 C257.51,351.31,254.84,354.38,252.12,357.87z" style="fill: rgb(162, 181, 66);"/></g></svg>